<svg xmlns="http://www.w3.org/2000/svg" width="340" height="341" viewBox="0 0 340 341"><g transform="translate(7 -4371)"><g transform="translate(9 4387.612)"><circle cx="154.694" cy="154.694" r="154.694" transform="translate(0)" fill="#fff" opacity="0.127"/></g><g transform="translate(-7 4372)"><path d="M170,0A170,170,0,1,1,0,170,170,170,0,0,1,170,0Z" transform="translate(0 0)" fill="#fff" opacity="0.127"/></g><g transform="translate(20.919 4399.919)" fill="rgba(255,255,255,0.1)"><path d="M 142.5463562011719 284.5927124023438 C 132.9083557128906 284.5927124023438 123.2765731811523 283.6217346191406 113.9185333251953 281.7068176269531 C 104.7985687255859 279.8406066894531 95.82788848876953 277.0559692382812 87.25563812255859 273.4302062988281 C 78.83892822265625 269.8702392578125 70.72096252441406 265.4639282226562 63.12725067138672 260.3337097167969 C 55.60553359985352 255.2521362304688 48.53242874145508 249.4162902832031 42.10442733764648 242.98828125 C 35.6763916015625 236.5602874755859 29.8405704498291 229.4871826171875 24.75899887084961 221.9654693603516 C 19.6287841796875 214.3717498779297 15.22246360778809 206.2537536621094 11.66249942779541 197.8370361328125 C 8.036748886108398 189.2648162841797 5.252106189727783 180.2941436767578 3.385891914367676 171.1741790771484 C 1.470963358879089 161.8161468505859 0.4999990463256836 152.1843566894531 0.4999990463256836 142.5463562011719 C 0.4999990463256836 132.9083557128906 1.470963358879089 123.2765731811523 3.385891914367676 113.9185333251953 C 5.252106189727783 104.7985687255859 8.036748886108398 95.82788848876953 11.66249942779541 87.25563812255859 C 15.22246360778809 78.83892822265625 19.6287841796875 70.72096252441406 24.75899887084961 63.12725067138672 C 29.8405704498291 55.60553359985352 35.6763916015625 48.53242874145508 42.10442733764648 42.10442733764648 C 48.53242874145508 35.6763916015625 55.60553359985352 29.8405704498291 63.12725067138672 24.75899887084961 C 70.72096252441406 19.6287841796875 78.83892822265625 15.22246360778809 87.25563812255859 11.66249942779541 C 95.82788848876953 8.036748886108398 104.7985687255859 5.252106189727783 113.9185333251953 3.385891914367676 C 123.2765731811523 1.470963358879089 132.9083557128906 0.4999990463256836 142.5463562011719 0.4999990463256836 C 152.1843566894531 0.4999990463256836 161.8161468505859 1.470963358879089 171.1741790771484 3.385891914367676 C 180.2941436767578 5.252106189727783 189.2648162841797 8.036748886108398 197.8370361328125 11.66249942779541 C 206.2537536621094 15.22246360778809 214.3717498779297 19.6287841796875 221.9654693603516 24.75899887084961 C 229.4871826171875 29.8405704498291 236.5602874755859 35.6763916015625 242.98828125 42.10442733764648 C 249.4162902832031 48.53242874145508 255.2521362304688 55.60553359985352 260.3337097167969 63.12725067138672 C 265.4639282226562 70.72096252441406 269.8702392578125 78.83892822265625 273.4302062988281 87.25563812255859 C 277.0559692382812 95.82788848876953 279.8406066894531 104.7985687255859 281.7068176269531 113.9185333251953 C 283.6217346191406 123.2765731811523 284.5927124023438 132.9083557128906 284.5927124023438 142.5463562011719 C 284.5927124023438 152.1843566894531 283.6217346191406 161.8161468505859 281.7068176269531 171.1741790771484 C 279.8406066894531 180.2941436767578 277.0559692382812 189.2648162841797 273.4302062988281 197.8370361328125 C 269.8702392578125 206.2537536621094 265.4639282226562 214.3717498779297 260.3337097167969 221.9654693603516 C 255.2521362304688 229.4871826171875 249.4162902832031 236.5602874755859 242.98828125 242.98828125 C 236.5602874755859 249.4162902832031 229.4871826171875 255.2521362304688 221.9654693603516 260.3337097167969 C 214.3717498779297 265.4639282226562 206.2537536621094 269.8702392578125 197.8370361328125 273.4302062988281 C 189.2648162841797 277.0559692382812 180.2941436767578 279.8406066894531 171.1741790771484 281.7068176269531 C 161.8161468505859 283.6217346191406 152.1843566894531 284.5927124023438 142.5463562011719 284.5927124023438 Z" stroke="none"/><path d="M 142.5463562011719 1 C 132.9419708251953 1 123.3438873291016 1.967529296875 114.0187835693359 3.875762939453125 C 104.9311370849609 5.735321044921875 95.99224853515625 8.510101318359375 87.45042419433594 12.12298583984375 C 79.06346130371094 15.67037963867188 70.97410583496094 20.06112670898438 63.40713500976562 25.17327880859375 C 55.91178894042969 30.23707580566406 48.86346435546875 36.05245971679688 42.45796203613281 42.45796203613281 C 36.05245971679688 48.86346435546875 30.23707580566406 55.91178894042969 25.17327880859375 63.40713500976562 C 20.06112670898438 70.97410583496094 15.67037963867188 79.06346130371094 12.12298583984375 87.45042419433594 C 8.510101318359375 95.99224853515625 5.735321044921875 104.9311370849609 3.875762939453125 114.0187835693359 C 1.967529296875 123.3438873291016 1 132.9419708251953 1 142.5463562011719 C 1 152.1507415771484 1.967529296875 161.7488098144531 3.875762939453125 171.0739288330078 C 5.735321044921875 180.1615600585938 8.510101318359375 189.1004333496094 12.12298583984375 197.6422424316406 C 15.67037963867188 206.0292510986328 20.06112670898438 214.1185607910156 25.17327880859375 221.6855773925781 C 30.23707580566406 229.1808929443359 36.05245971679688 236.2292175292969 42.45796203613281 242.6347503662109 C 48.86346435546875 249.0402526855469 55.91178894042969 254.8556365966797 63.40713500976562 259.9194030761719 C 70.97410583496094 265.0315246582031 79.06346130371094 269.4223327636719 87.45042419433594 272.9697265625 C 95.99224853515625 276.5826110839844 104.9311370849609 279.3573913574219 114.0187835693359 281.2169494628906 C 123.3438873291016 283.1251831054688 132.9419708251953 284.0927124023438 142.5463562011719 284.0927124023438 C 152.1507415771484 284.0927124023438 161.7488098144531 283.1251831054688 171.0739288330078 281.2169494628906 C 180.1615600585938 279.3573913574219 189.1004333496094 276.5826110839844 197.6422424316406 272.9697265625 C 206.0292510986328 269.4223327636719 214.1185607910156 265.0315246582031 221.6855773925781 259.9194030761719 C 229.1808929443359 254.8556365966797 236.2292175292969 249.0402526855469 242.6347503662109 242.6347503662109 C 249.0402526855469 236.2292175292969 254.8556365966797 229.1808929443359 259.9194030761719 221.6855773925781 C 265.0315246582031 214.1185607910156 269.4223327636719 206.0292510986328 272.9697265625 197.6422424316406 C 276.5826110839844 189.1004333496094 279.3573913574219 180.1615600585938 281.2169494628906 171.0739288330078 C 283.1251831054688 161.7488098144531 284.0927124023438 152.1507415771484 284.0927124023438 142.5463562011719 C 284.0927124023438 132.9419708251953 283.1251831054688 123.3438873291016 281.2169494628906 114.0187835693359 C 279.3573913574219 104.9311370849609 276.5826110839844 95.99224853515625 272.9697265625 87.45042419433594 C 269.4223327636719 79.06346130371094 265.0315246582031 70.97410583496094 259.9194030761719 63.40713500976562 C 254.8556365966797 55.91178894042969 249.0402526855469 48.86346435546875 242.6347503662109 42.45796203613281 C 236.2292175292969 36.05245971679688 229.1808929443359 30.23707580566406 221.6855773925781 25.17327880859375 C 214.1185607910156 20.06112670898438 206.0292510986328 15.67037963867188 197.6422424316406 12.12298583984375 C 189.1004333496094 8.510101318359375 180.1615600585938 5.735321044921875 171.0739288330078 3.875762939453125 C 161.7488098144531 1.967529296875 152.1507415771484 1 142.5463562011719 1 M 142.5463562011719 0 C 221.2724914550781 0 285.0927124023438 63.82017517089844 285.0927124023438 142.5463562011719 C 285.0927124023438 221.2724914550781 221.2724914550781 285.0927124023438 142.5463562011719 285.0927124023438 C 63.82017517089844 285.0927124023438 0 221.2724914550781 0 142.5463562011719 C 0 63.82017517089844 63.82017517089844 0 142.5463562011719 0 Z" stroke="none" fill="#fff"/></g><g transform="translate(138.802 4372)"><path d="M-305.686-1073.674l-17.343,19.632a3.883,3.883,0,0,1-5.832-3.559v-63.757a4.69,4.69,0,0,1,4.673-4.706h40.909a4.689,4.689,0,0,1,4.673,4.706v63.757a3.882,3.882,0,0,1-5.831,3.559l-17.343-19.632A3.685,3.685,0,0,0-305.686-1073.674Z" transform="translate(328.861 1126.064)" fill="#fff" stroke="#fff" stroke-linecap="round" stroke-miterlimit="10" stroke-width="2"/><text transform="translate(16.891 38.611)" font-size="29" font-family="NotoSansCJKkr-Bold, Noto Sans CJK KR" font-weight="700" letter-spacing="-0.04em"><tspan x="0" y="0">2</tspan></text></g></g></svg>