<svg xmlns="http://www.w3.org/2000/svg" width="340" height="341" viewBox="0 0 340 341"><g transform="translate(7 -4371)"><g transform="translate(9 4388.225)"><circle cx="154.388" cy="154.388" r="154.388" transform="translate(0)" fill="#fff" opacity="0.127"/></g><g transform="translate(-7 4372)"><path d="M170,0A170,170,0,1,1,0,170,170,170,0,0,1,170,0Z" transform="translate(0 0)" fill="#fff" opacity="0.127"/></g><g transform="translate(20.887 4399.887)" fill="rgba(255,255,255,0.1)"><path d="M 142.5775299072266 284.6550598144531 C 132.9374237060547 284.6550598144531 123.3035278320312 283.6838989257812 113.9434204101562 281.7685241699219 C 104.8214569091797 279.9019165039062 95.84881591796875 277.1166687011719 87.27471160888672 273.4901123046875 C 78.85614013671875 269.9293518066406 70.73638916015625 265.5220947265625 63.14099502563477 260.3907470703125 C 55.61763763427734 255.3080596923828 48.5429573059082 249.4709625244141 42.11352920532227 243.0415344238281 C 35.68410110473633 236.6121063232422 29.84699440002441 229.5374298095703 24.76431655883789 222.0140686035156 C 19.63295936584473 214.4186706542969 15.2257080078125 206.2989196777344 11.66495895385742 197.8803558349609 C 8.038387298583984 189.3062438964844 5.253137111663818 180.3336029052734 3.386529922485352 171.2116394042969 C 1.47117280960083 161.8515319824219 0.4999941885471344 152.2176361083984 0.4999941885471344 142.5775299072266 C 0.4999941885471344 132.9374237060547 1.47117280960083 123.3035278320312 3.386529922485352 113.9434204101562 C 5.253137111663818 104.8214569091797 8.038387298583984 95.84881591796875 11.66495895385742 87.27471160888672 C 15.2257080078125 78.85614013671875 19.63295936584473 70.73638916015625 24.76431655883789 63.14099502563477 C 29.84699440002441 55.61763763427734 35.68410110473633 48.5429573059082 42.11352920532227 42.11352920532227 C 48.5429573059082 35.68410110473633 55.61763763427734 29.84699440002441 63.14099502563477 24.76431655883789 C 70.73638916015625 19.63295936584473 78.85614013671875 15.2257080078125 87.27471160888672 11.66495895385742 C 95.84881591796875 8.038387298583984 104.8214569091797 5.253137111663818 113.9434204101562 3.386529922485352 C 123.3035278320312 1.47117280960083 132.9374237060547 0.4999941885471344 142.5775299072266 0.4999941885471344 C 152.2176361083984 0.4999941885471344 161.8515319824219 1.47117280960083 171.2116394042969 3.386529922485352 C 180.3336029052734 5.253137111663818 189.3062438964844 8.038387298583984 197.8803558349609 11.66495895385742 C 206.2989196777344 15.2257080078125 214.4186706542969 19.63295936584473 222.0140686035156 24.76431655883789 C 229.5374298095703 29.84699440002441 236.6121063232422 35.68410110473633 243.0415344238281 42.11352920532227 C 249.4709625244141 48.5429573059082 255.3080596923828 55.61763763427734 260.3907470703125 63.14099502563477 C 265.5220947265625 70.73638916015625 269.9293518066406 78.85614013671875 273.4901123046875 87.27471160888672 C 277.1166687011719 95.84881591796875 279.9019165039062 104.8214569091797 281.7685241699219 113.9434204101562 C 283.6838989257812 123.3035278320312 284.6550598144531 132.9374237060547 284.6550598144531 142.5775299072266 C 284.6550598144531 152.2176361083984 283.6838989257812 161.8515319824219 281.7685241699219 171.2116394042969 C 279.9019165039062 180.3336029052734 277.1166687011719 189.3062438964844 273.4901123046875 197.8803558349609 C 269.9293518066406 206.2989196777344 265.5220947265625 214.4186706542969 260.3907470703125 222.0140686035156 C 255.3080596923828 229.5374298095703 249.4709625244141 236.6121063232422 243.0415344238281 243.0415344238281 C 236.6121063232422 249.4709625244141 229.5374298095703 255.3080596923828 222.0140686035156 260.3907470703125 C 214.4186706542969 265.5220947265625 206.2989196777344 269.9293518066406 197.8803558349609 273.4901123046875 C 189.3062438964844 277.1166687011719 180.3336029052734 279.9019165039062 171.2116394042969 281.7685241699219 C 161.8515319824219 283.6838989257812 152.2176361083984 284.6550598144531 142.5775299072266 284.6550598144531 Z" stroke="none"/><path d="M 142.5775299072266 1 C 132.9710235595703 1 123.370849609375 1.967742919921875 114.0436706542969 3.8763427734375 C 104.9540252685547 5.736358642578125 96.01316833496094 8.51177978515625 87.46945190429688 12.12545776367188 C 79.08064270019531 15.67364501953125 70.98953247070312 20.06533813476562 63.42088317871094 25.17864990234375 C 55.92388916015625 30.24349975585938 48.8740234375 36.06016540527344 42.46710205078125 42.46710205078125 C 36.06016540527344 48.8740234375 30.24349975585938 55.92388916015625 25.17864990234375 63.42088317871094 C 20.06533813476562 70.98953247070312 15.67364501953125 79.08064270019531 12.12545776367188 87.46945190429688 C 8.51177978515625 96.01316833496094 5.736358642578125 104.9540252685547 3.8763427734375 114.0436706542969 C 1.967742919921875 123.370849609375 1 132.9710235595703 1 142.5775299072266 C 1 152.1840362548828 1.967742919921875 161.7842102050781 3.8763427734375 171.1113891601562 C 5.736358642578125 180.2010192871094 8.51177978515625 189.141845703125 12.12545776367188 197.6855621337891 C 15.67364501953125 206.0744323730469 20.06533813476562 214.16552734375 25.17864990234375 221.7341766357422 C 30.24349975585938 229.2311401367188 36.06016540527344 236.2810363769531 42.46710205078125 242.6879577636719 C 48.8740234375 249.0948791503906 55.92388916015625 254.9115600585938 63.42088317871094 259.9764099121094 C 70.98953247070312 265.0897216796875 79.08064270019531 269.4814147949219 87.46945190429688 273.0296020507812 C 96.01316833496094 276.6432800292969 104.9540252685547 279.4186706542969 114.0436706542969 281.2787170410156 C 123.370849609375 283.1873168945312 132.9710235595703 284.1550598144531 142.5775299072266 284.1550598144531 C 152.1840362548828 284.1550598144531 161.7842102050781 283.1873168945312 171.1113891601562 281.2787170410156 C 180.2009887695312 279.4186706542969 189.141845703125 276.6432800292969 197.6855621337891 273.0296020507812 C 206.0743865966797 269.4814147949219 214.16552734375 265.0897216796875 221.7341766357422 259.9764099121094 C 229.2311401367188 254.9115600585938 236.2810363769531 249.0948791503906 242.6879577636719 242.6879577636719 C 249.0948791503906 236.2810363769531 254.9115600585938 229.2311401367188 259.9764099121094 221.7341766357422 C 265.0897216796875 214.16552734375 269.4814147949219 206.0743865966797 273.0296020507812 197.6855621337891 C 276.6432800292969 189.141845703125 279.4186706542969 180.2009887695312 281.2787170410156 171.1113891601562 C 283.1873168945312 161.7842102050781 284.1550598144531 152.1840362548828 284.1550598144531 142.5775299072266 C 284.1550598144531 132.9710235595703 283.1873168945312 123.370849609375 281.2787170410156 114.0436706542969 C 279.4186706542969 104.9540252685547 276.6432800292969 96.01316833496094 273.0296020507812 87.46945190429688 C 269.4814147949219 79.08064270019531 265.0897216796875 70.98953247070312 259.9764099121094 63.42088317871094 C 254.9115600585938 55.92388916015625 249.0948791503906 48.8740234375 242.6879577636719 42.46710205078125 C 236.2810363769531 36.06016540527344 229.2311401367188 30.24349975585938 221.7341766357422 25.17864990234375 C 214.16552734375 20.06533813476562 206.0744323730469 15.67364501953125 197.6855621337891 12.12545776367188 C 189.141845703125 8.51177978515625 180.2010192871094 5.736358642578125 171.1113891601562 3.8763427734375 C 161.7842102050781 1.967742919921875 152.1840362548828 1 142.5775299072266 1 M 142.5775299072266 0 C 221.3208923339844 0 285.1550598144531 63.83413696289062 285.1550598144531 142.5775299072266 C 285.1550598144531 221.3208923339844 221.3208923339844 285.1550598144531 142.5775299072266 285.1550598144531 C 63.83413696289062 285.1550598144531 0 221.3208923339844 0 142.5775299072266 C 0 63.83413696289062 63.83413696289062 0 142.5775299072266 0 Z" stroke="none" fill="#fff"/></g><g transform="translate(138.831 4372)"><path d="M-305.712-1073.734l-17.323,19.61a3.879,3.879,0,0,1-5.826-3.555v-63.685a4.685,4.685,0,0,1,4.667-4.7h40.862a4.684,4.684,0,0,1,4.667,4.7v63.685a3.878,3.878,0,0,1-5.824,3.555l-17.323-19.61A3.682,3.682,0,0,0-305.712-1073.734Z" transform="translate(328.861 1126.064)" fill="#fff" stroke="#fff" stroke-linecap="round" stroke-miterlimit="10" stroke-width="2"/><text transform="translate(17.057 38.225)" font-size="29" font-family="NotoSansCJKkr-Bold, Noto Sans CJK KR" font-weight="700" letter-spacing="-0.04em"><tspan x="0" y="0">3</tspan></text></g></g></svg>