<svg xmlns="http://www.w3.org/2000/svg" width="366" height="367" viewBox="0 0 366 367"><g transform="translate(7 -4371)"><g transform="translate(9.637 4388.338)"><circle cx="166.5" cy="166.5" r="166.5" transform="translate(0.364 0.662)" fill="#fff" opacity="0.127"/></g><g transform="translate(-7 4371.703)"><path d="M183,0A183,183,0,1,1,0,183,183,183,0,0,1,183,0Z" transform="translate(0 0.297)" fill="#fff" opacity="0.127"/></g><g transform="translate(23 4402)" fill="rgba(255,255,255,0.1)"><path d="M 153.5 306.5 C 143.1188049316406 306.5 132.7443084716797 305.4541931152344 122.6646575927734 303.3915710449219 C 112.8413848876953 301.3814697265625 103.1789245605469 298.3820495605469 93.94565582275391 294.4766845703125 C 84.8798828125 290.6421813964844 76.13592529296875 285.8961181640625 67.95661163330078 280.3703002929688 C 59.85488510131836 274.8968811035156 52.23634719848633 268.6110534667969 45.31265258789062 261.6873474121094 C 38.38896179199219 254.7636566162109 32.10311508178711 247.1451110839844 26.62969207763672 239.0433807373047 C 21.10388374328613 230.8640747070312 16.35780715942383 222.1201171875 12.52330780029297 213.0543518066406 C 8.617961883544922 203.8210754394531 5.618538379669189 194.1586151123047 3.608422994613647 184.3353424072266 C 1.545807719230652 174.2556915283203 0.5 163.8811950683594 0.5 153.5 C 0.5 143.1188049316406 1.545807719230652 132.7443084716797 3.608422994613647 122.6646575927734 C 5.618538379669189 112.8413848876953 8.617961883544922 103.1789245605469 12.52330780029297 93.94565582275391 C 16.35780715942383 84.8798828125 21.10388374328613 76.13592529296875 26.62969207763672 67.95661163330078 C 32.10311508178711 59.85488510131836 38.38896179199219 52.23634719848633 45.31265258789062 45.31265258789062 C 52.23634719848633 38.38896179199219 59.85488510131836 32.10311508178711 67.95661163330078 26.62969207763672 C 76.13592529296875 21.10388374328613 84.8798828125 16.35780715942383 93.94565582275391 12.52330780029297 C 103.1789245605469 8.617961883544922 112.8413848876953 5.618538379669189 122.6646575927734 3.608422994613647 C 132.7443084716797 1.545807719230652 143.1188049316406 0.5 153.5 0.5 C 163.8811950683594 0.5 174.2556915283203 1.545807719230652 184.3353424072266 3.608422994613647 C 194.1586151123047 5.618538379669189 203.8210754394531 8.617961883544922 213.0543518066406 12.52330780029297 C 222.1201171875 16.35780715942383 230.8640747070312 21.10388374328613 239.0433807373047 26.62969207763672 C 247.1451110839844 32.10311508178711 254.7636566162109 38.38896179199219 261.6873474121094 45.31265258789062 C 268.6110534667969 52.23634719848633 274.8968811035156 59.85488510131836 280.3703002929688 67.95661163330078 C 285.8961181640625 76.13592529296875 290.6421813964844 84.8798828125 294.4766845703125 93.94565582275391 C 298.3820495605469 103.1789245605469 301.3814697265625 112.8413848876953 303.3915710449219 122.6646575927734 C 305.4541931152344 132.7443084716797 306.5 143.1188049316406 306.5 153.5 C 306.5 163.8811950683594 305.4541931152344 174.2556915283203 303.3915710449219 184.3353424072266 C 301.3814697265625 194.1586151123047 298.3820495605469 203.8210754394531 294.4766845703125 213.0543518066406 C 290.6421813964844 222.1201171875 285.8961181640625 230.8640747070312 280.3703002929688 239.0433807373047 C 274.8968811035156 247.1451110839844 268.6110534667969 254.7636566162109 261.6873474121094 261.6873474121094 C 254.7636566162109 268.6110534667969 247.1451110839844 274.8968811035156 239.0433807373047 280.3703002929688 C 230.8640747070312 285.8961181640625 222.1201171875 290.6421813964844 213.0543518066406 294.4766845703125 C 203.8210754394531 298.3820495605469 194.1586151123047 301.3814697265625 184.3353424072266 303.3915710449219 C 174.2556915283203 305.4541931152344 163.8811950683594 306.5 153.5 306.5 Z" stroke="none"/><path d="M 153.5 1 C 143.1524200439453 1 132.8116149902344 2.04241943359375 122.7648773193359 4.0982666015625 C 112.9739685058594 6.101776123046875 103.3433074951172 9.09130859375 94.14042663574219 12.98379516601562 C 85.10438537597656 16.80572509765625 76.3890380859375 21.5362548828125 68.23649597167969 27.04400634765625 C 60.16114807128906 32.49960327148438 52.56742858886719 38.76504516601562 45.66622924804688 45.66622924804688 C 38.76504516601562 52.56742858886719 32.49960327148438 60.16114807128906 27.04400634765625 68.23649597167969 C 21.5362548828125 76.3890380859375 16.80572509765625 85.10438537597656 12.98379516601562 94.14042663574219 C 9.09130859375 103.3433074951172 6.101776123046875 112.9739685058594 4.0982666015625 122.7648773193359 C 2.04241943359375 132.8116149902344 1 143.1524200439453 1 153.5 C 1 163.8475799560547 2.04241943359375 174.1883850097656 4.0982666015625 184.235107421875 C 6.101776123046875 194.0260314941406 9.09130859375 203.6566925048828 12.98379516601562 212.8595733642578 C 16.80572509765625 221.8956146240234 21.5362548828125 230.6109619140625 27.04400634765625 238.7634887695312 C 32.49960327148438 246.8388366699219 38.76504516601562 254.4325714111328 45.66622924804688 261.3337707519531 C 52.56742858886719 268.2349548339844 60.16114807128906 274.5003967285156 68.23649597167969 279.9559936523438 C 76.3890380859375 285.4637451171875 85.10438537597656 290.1942749023438 94.14042663574219 294.0162048339844 C 103.3433074951172 297.90869140625 112.9739685058594 300.8982238769531 122.7648773193359 302.9017333984375 C 132.8116149902344 304.9575805664062 143.1524200439453 306 153.5 306 C 163.8475799560547 306 174.1883850097656 304.9575805664062 184.235107421875 302.9017333984375 C 194.0260314941406 300.8982238769531 203.6566925048828 297.90869140625 212.8595733642578 294.0162048339844 C 221.8956146240234 290.1942749023438 230.6109619140625 285.4637451171875 238.7634887695312 279.9559936523438 C 246.8388366699219 274.5003967285156 254.4325714111328 268.2349548339844 261.3337707519531 261.3337707519531 C 268.2349548339844 254.4325714111328 274.5003967285156 246.8388366699219 279.9559936523438 238.7634887695312 C 285.4637451171875 230.6109619140625 290.1942749023438 221.8956146240234 294.0162048339844 212.8595733642578 C 297.90869140625 203.6566925048828 300.8982238769531 194.0260314941406 302.9017333984375 184.235107421875 C 304.9575805664062 174.1883850097656 306 163.8475799560547 306 153.5 C 306 143.1524200439453 304.9575805664062 132.8116149902344 302.9017333984375 122.7648773193359 C 300.8982238769531 112.9739685058594 297.90869140625 103.3433074951172 294.0162048339844 94.14042663574219 C 290.1942749023438 85.10438537597656 285.4637451171875 76.3890380859375 279.9559936523438 68.23649597167969 C 274.5003967285156 60.16114807128906 268.2349548339844 52.56742858886719 261.3337707519531 45.66622924804688 C 254.4325714111328 38.76504516601562 246.8388366699219 32.49960327148438 238.7634887695312 27.04400634765625 C 230.6109619140625 21.5362548828125 221.8956146240234 16.80572509765625 212.8595733642578 12.98379516601562 C 203.6566925048828 9.09130859375 194.0260314941406 6.101776123046875 184.235107421875 4.0982666015625 C 174.1883850097656 2.04241943359375 163.8475799560547 1 153.5 1 M 153.5 0 C 238.2756958007812 0 307 68.72430419921875 307 153.5 C 307 238.2756958007812 238.2756958007812 307 153.5 307 C 68.72430419921875 307 0 238.2756958007812 0 153.5 C 0 68.72430419921875 68.72430419921875 0 153.5 0 Z" stroke="none" fill="#fff"/></g><g transform="translate(-791 463)"><path d="M-303.958-1069.769l-18.635,21.1a4.173,4.173,0,0,1-6.267-3.824v-68.51a5.04,5.04,0,0,1,5.021-5.057h43.958a5.039,5.039,0,0,1,5.021,5.057v68.51a4.171,4.171,0,0,1-6.265,3.824l-18.635-21.1A3.96,3.96,0,0,0-303.958-1069.769Z" transform="translate(1269.861 5035.064)" fill="#fff" stroke="#fff" stroke-linecap="round" stroke-miterlimit="10" stroke-width="2"/><text transform="translate(959 3950)" font-size="31" font-family="NotoSansCJKkr-Bold, Noto Sans CJK KR" font-weight="700" letter-spacing="-0.04em"><tspan x="0" y="0">1</tspan></text></g></g></svg>