<svg xmlns="http://www.w3.org/2000/svg" xmlns:xlink="http://www.w3.org/1999/xlink" width="300" height="300" viewBox="0 0 300 300"><defs><clipPath id="a"><rect width="100" height="100" transform="translate(-19992 12035)" fill="#fff" stroke="#707070" stroke-width="1"/></clipPath></defs><g transform="translate(-625 -6801)"><circle cx="150" cy="150" r="150" transform="translate(625 6801)" fill="#fff" opacity="0.298"/><g transform="translate(20717 -5174)" clip-path="url(#a)"><g transform="translate(-19992 12046.505)"><path d="M42.549,113.631H6.9V112.2a17.824,17.824,0,1,1,35.649,0ZM9.824,110.774h29.8a14.97,14.97,0,0,0-29.8,0Z" transform="translate(-6.9 -50.078)" fill="#fff"/><path d="M26.566,137.942a14.88,14.88,0,0,1-14.857-14.857h2.857a11.986,11.986,0,0,0,23.973,0H41.4a14.857,14.857,0,0,1-14.83,14.857Z" transform="translate(-8.722 -60.954)" fill="#fff"/><path d="M30.369,131.7a8.633,8.633,0,0,1-8.623-8.623H24.6a5.746,5.746,0,0,0,11.491,0h2.857a8.613,8.613,0,0,1-8.583,8.623Z" transform="translate(-12.525 -60.951)" fill="#fff"/><path d="M111.356,135.623a14.911,14.911,0,0,1-14.376-18.666l2.763.733a12.011,12.011,0,1,0,23.627,3.063,12.715,12.715,0,0,0-.39-3.081l2.771-.693a15.572,15.572,0,0,1,.476,3.776A14.889,14.889,0,0,1,111.356,135.623Z" transform="translate(-40.848 -58.633)" fill="#fff"/><path d="M115.24,129.061a8.516,8.516,0,0,1-7.429-12.633l2.5,1.389a5.637,5.637,0,1,0,9.871,0l2.5-1.389a8.517,8.517,0,0,1-7.429,12.633Z" transform="translate(-44.731 -58.433)" fill="#fff"/><path d="M115.73,102.38H61.41V99.523h51.23a29.449,29.449,0,0,0-16.8-23.091l-.27-.131,1.243-2.571.273.131a32.22,32.22,0,0,1,18.541,27Z" transform="translate(-27.553 -42.255)" fill="#fff"/><path d="M29.924,77.38H27.066V70.935A39.359,39.359,0,0,1,35.549,46.58l1.673-2.111,2.239,1.774-1.673,2.111a36.49,36.49,0,0,0-7.866,22.581Z" transform="translate(-14.541 -31.168)" fill="#fff"/><path d="M59.22,80.183a25.814,25.814,0,0,1-3.913-.321,13.2,13.2,0,0,1-9.091-5.233c-6.781-9.816,1.81-24.606,2.179-25.231l2.46,1.453c-.081.143-8.03,13.844-2.286,22.154a10.4,10.4,0,0,0,7.174,4.033c4.489.689,7.773.143,10.044-1.669,2.2-1.759,3.474-4.806,3.776-9.054l2.857.2c-.361,5.079-1.991,8.809-4.844,11.084a12.906,12.906,0,0,1-8.356,2.581Z" transform="translate(-20.811 -33.036)" fill="#fff"/><path d="M54.022,41.574H50.991V23.055h3.031A8.991,8.991,0,0,1,63,32.037v.556a8.991,8.991,0,0,1-8.981,8.981Zm-.174-2.857h.174a6.13,6.13,0,0,0,6.123-6.124v-.556a6.13,6.13,0,0,0-6.124-6.124h-.173Z" transform="translate(-23.605 -23.055)" fill="#fff"/><path d="M46.648,40.783a7.232,7.232,0,0,1,0-14.464,6.733,6.733,0,0,1,1.767.249l-.753,2.757a3.937,3.937,0,0,0-1.014-.143,4.375,4.375,0,0,0,0,8.75,3.937,3.937,0,0,0,1.014-.143l.753,2.757A6.732,6.732,0,0,1,46.648,40.783Z" transform="translate(-19.22 -24.292)" fill="#fff"/><path d="M101.991,72.033H84.5a4.966,4.966,0,1,1,0-9.933h17.491a4.966,4.966,0,0,1,0,9.933ZM84.5,64.957a2.109,2.109,0,1,0,0,4.219h17.491a2.109,2.109,0,1,0,0-4.219Z" transform="translate(-34.419 -37.849)" fill="#fff"/><path d="M138.12,82.716l-2.059-1.981,12.2-12.687V64.4h2.857v4.8Z" transform="translate(-55.837 -38.72)" fill="#fff"/><path d="M151.343,51.886H124.2V27.6h27.143Zm-24.286-2.857h21.429V30.457H127.057Z" transform="translate(-51.343 -24.777)" fill="#fff"/><path d="M73.916,39.61H67.33V36.753h6.584a1.36,1.36,0,1,0,0-2.714H67.33V31.182h6.584a4.217,4.217,0,1,1,0,8.429Z" transform="translate(-29.796 -26.133)" fill="#fff"/><path d="M115.685,62.1h7.274v2.857h-7.274Z" transform="translate(-48.117 -37.849)" fill="#fff"/><path d="M144.9,29.9h2.857v5.714H144.9Z" transform="translate(-59.186 -25.649)" fill="#fff"/></g></g><text transform="translate(775 7026)" fill="#fff" font-size="30" font-family="NotoSansCJKkr-Bold, Noto Sans CJK KR" font-weight="700" letter-spacing="-0.04em"><tspan x="-27" y="0">배달</tspan></text></g></svg>