<svg xmlns="http://www.w3.org/2000/svg" xmlns:xlink="http://www.w3.org/1999/xlink" width="300" height="300" viewBox="0 0 300 300"><defs><clipPath id="a"><rect width="100" height="100" transform="translate(-22938 -18343)" fill="#fdc559"/></clipPath></defs><g transform="translate(-1365 -6801)"><circle cx="150" cy="150" r="150" transform="translate(1365 6801)" fill="#fff" opacity="0.298"/><text transform="translate(1515 7026)" fill="#fdc559" font-size="30" font-family="NotoSansCJKkr-Bold, Noto Sans CJK KR" font-weight="700" letter-spacing="-0.04em"><tspan x="-56.205" y="0">높은 매출</tspan></text><g transform="translate(24403 25204)" clip-path="url(#a)"><g transform="translate(-22938 -18340.916)"><path d="M14.166,47.578a4.167,4.167,0,0,1-2.946-7.113L40,11.691a4.166,4.166,0,1,1,5.892,5.892L17.112,46.357a4.155,4.155,0,0,1-2.946,1.221Z" transform="translate(-1.666 -5.911)" fill="#fdc559"/><path d="M52.708,25.833a3.11,3.11,0,0,1-2.208-.917L35.917,10.333A3.123,3.123,0,0,1,38.125,5H52.708a3.126,3.126,0,0,1,3.125,3.125V22.708a3.124,3.124,0,0,1-3.125,3.125Z" transform="translate(-5.833 -5)" fill="#fdc559"/><path d="M30,75.208V99.167H5V75.208A5.21,5.21,0,0,1,10.208,70H24.792A5.21,5.21,0,0,1,30,75.208Z" transform="translate(-0.833 -15.833)" fill="#fdc559"/><path d="M70,55.208V95.833H45V55.208A5.21,5.21,0,0,1,50.208,50H64.792A5.21,5.21,0,0,1,70,55.208Z" transform="translate(-7.5 -12.5)" fill="#fdc559"/><path d="M110,35.208V92.5H85V35.208A5.21,5.21,0,0,1,90.208,30h14.583A5.21,5.21,0,0,1,110,35.208Z" transform="translate(-14.167 -9.167)" fill="#fdc559"/><path d="M96.875,118.75H3.125a3.125,3.125,0,0,1,0-6.25h93.75a3.125,3.125,0,0,1,0,6.25Z" transform="translate(0 -22.917)" fill="#fdc559"/></g></g></g></svg>