<svg xmlns="http://www.w3.org/2000/svg" xmlns:xlink="http://www.w3.org/1999/xlink" width="300" height="300" viewBox="0 0 300 300"><defs><clipPath id="a"><rect width="100" height="100" transform="translate(-19801 12035)" fill="#fff" stroke="#707070" stroke-width="1"/></clipPath></defs><g transform="translate(-995 -6801)"><circle cx="150" cy="150" r="150" transform="translate(995 6801)" fill="#fff" opacity="0.298"/><g transform="translate(20896 -5174)" clip-path="url(#a)"><g transform="translate(-19789.334 12035)"><path d="M100.568,49.166l-7.085-28.34c1.422-1.436,2.333-4.033,2.333-7.126,0-4.75-2.149-8.333-5-8.333h-60c-2.85,0-5,3.583-5,8.333s2.15,8.333,5,8.333h.365L24.4,49.166a8.346,8.346,0,0,0-.249,2.021V103.7a1.667,1.667,0,0,0,1.667,1.667H99.15a1.667,1.667,0,0,0,1.667-1.667V51.187a8.341,8.341,0,0,0-.249-2.02Zm-3.085,2.021V99.676l-5-5V53.7a1.667,1.667,0,1,0-3.333,0V94.676l-5,5V51.187a5.008,5.008,0,0,1,.149-1.212L90.817,23.9l6.517,26.069A5.008,5.008,0,0,1,97.483,51.187ZM90.817,97.724l4.31,4.31H86.507ZM92.483,13.7c0,3.227-1.252,5-1.667,5s-1.667-1.773-1.667-5,1.252-5,1.667-5S92.483,10.473,92.483,13.7Zm-63.333,0c0-3.392,1.337-5,1.667-5H86.763a12.634,12.634,0,0,0-.946,5,12.634,12.634,0,0,0,.946,5H30.817C30.487,18.7,29.15,17.092,29.15,13.7ZM27.483,51.187a5,5,0,0,1,.149-1.212l6.985-27.942H87.849L81.065,49.167a8.347,8.347,0,0,0-.249,2.021v50.846H27.483Z" transform="translate(-24.15 -5.367)" fill="#fff"/><path d="M60.617,75.133A1.667,1.667,0,0,0,58.95,76.8v5H55.617v-5a1.667,1.667,0,0,0-3.333,0v5H48.95v-5a1.667,1.667,0,0,0-3.333,0v6.667h0a1.662,1.662,0,0,0,.173.745l3.136,6.272L47.541,116.46a5,5,0,0,0,4.989,5.34h2.84a5,5,0,0,0,4.989-5.34L58.971,90.484l3.136-6.272a1.662,1.662,0,0,0,.173-.745h0V76.8A1.667,1.667,0,0,0,60.617,75.133Zm-2.7,10-1.667,3.333H51.647L49.98,85.133Zm-1.33,32.8a1.65,1.65,0,0,1-1.22.531H52.53a1.667,1.667,0,0,1-1.662-1.785l0-.03L52.2,91.8H55.7l1.327,24.851,0,.03a1.65,1.65,0,0,1-.443,1.255Z" transform="translate(-32.283 -31.8)" fill="#fff"/><path d="M89.762,116.333,88.467,96.745V76.8A1.667,1.667,0,0,0,86.8,75.133c-10.179,0-11.606,17.465-11.662,18.208a1.667,1.667,0,0,0,.917,1.615l2.412,1.206v.582l-1.295,19.588A5,5,0,0,0,82.15,121.8h2.633a5,5,0,0,0,4.979-5.467ZM80.116,85.615c1.281-3.769,2.964-6.061,5.018-6.844V95.133H81.8a1.667,1.667,0,0,0-.921-1.491l-2.3-1.149a36.626,36.626,0,0,1,1.535-6.879Zm5.9,32.3a1.648,1.648,0,0,1-1.236.548H82.15a1.667,1.667,0,0,1-1.658-1.833c0-.019,0-.037,0-.056l1.2-18.111H85.24l1.2,18.112c0,.019,0,.037,0,.056a1.648,1.648,0,0,1-.423,1.284Z" transform="translate(-43.467 -31.8)" fill="#fff"/></g></g><text transform="translate(1145 7026)" fill="#fff" font-size="30" font-family="NotoSansCJKkr-Bold, Noto Sans CJK KR" font-weight="700" letter-spacing="-0.04em"><tspan x="-27" y="0">포장</tspan></text></g></svg>