<svg xmlns="http://www.w3.org/2000/svg" xmlns:xlink="http://www.w3.org/1999/xlink" width="300" height="300" viewBox="0 0 300 300"><defs><clipPath id="a"><rect width="100" height="100" transform="translate(-20206 12035)" fill="#fff"/></clipPath></defs><g transform="translate(-255 -6801)"><circle cx="150" cy="150" r="150" transform="translate(255 6801)" fill="#fff" opacity="0.298"/><g transform="translate(20561 -5166)" clip-path="url(#a)"><g transform="translate(-20206 12035.281)"><path d="M81.026,40.629l5.875-.372.031,0a13.835,13.835,0,0,0,10.312-6.02l4.645-6.815A27.5,27.5,0,0,0,106.3,7.244a6.2,6.2,0,0,0-5.821-5.161,27.491,27.491,0,0,0-19.5,6.8l-6.209,5.428a13.836,13.836,0,0,0-4.74,10.96c0,.01,0,.021,0,.031l.335,5.877a8.272,8.272,0,0,1-2.3,6.2L19.557,87.2a7.048,7.048,0,0,0-1.888,5.231,8.1,8.1,0,0,0,8.212,7.877q.323,0,.645-.026A7.05,7.05,0,0,0,31.5,97.778L75.145,43.659A8.274,8.274,0,0,1,81.026,40.629Zm-8.211,1.144L29.174,95.887A4.08,4.08,0,0,1,26.287,97.3a5.12,5.12,0,0,1-5.621-4.984,4.074,4.074,0,0,1,1.048-3.027l48.5-49.827a11.281,11.281,0,0,0,3.142-8.455l-.335-5.862a10.851,10.851,0,0,1,3.718-8.579l6.209-5.428a24.526,24.526,0,0,1,17.386-6.059,3.209,3.209,0,0,1,3.008,2.667,24.514,24.514,0,0,1-3.931,17.986l-4.645,6.815a10.852,10.852,0,0,1-8.072,4.72l-5.859.371A11.285,11.285,0,0,0,72.815,41.773Zm0,0" transform="translate(-6.692 -0.875)" fill="#fff"/><path d="M131.745,120.231,99.221,90.608A1.5,1.5,0,1,0,97.2,92.824l32.515,29.616a4.08,4.08,0,0,1,1.236,2.966,5.121,5.121,0,0,1-5.312,5.312,4.076,4.076,0,0,1-2.959-1.228L93.7,97.674a1.5,1.5,0,1,0-2.216,2.019l28.988,31.825a7.048,7.048,0,0,0,5.109,2.2l.157,0a8.114,8.114,0,0,0,8.211-8.37A7.055,7.055,0,0,0,131.745,120.231Zm0,0" transform="translate(-34.514 -34.279)" fill="#fff"/><path d="M18.088,39.627a13.881,13.881,0,0,0,9.077,3.67H27.2l5.887.018a8.268,8.268,0,0,1,6.049,2.668l2.593,2.847a1.5,1.5,0,1,0,2.216-2.019l-2.6-2.85a11.28,11.28,0,0,0-8.251-3.644L27.222,40.3a10.892,10.892,0,0,1-7.035-2.814L3.127,17.2a.518.518,0,0,1,.762-.7l15.529,15.53a3.941,3.941,0,0,0,5.568,0l1.825-1.824h0l3.24-3.24h0l1.824-1.824a3.942,3.942,0,0,0,0-5.568L16.348,4.046a.518.518,0,0,1,.7-.762L37.328,20.345a10.887,10.887,0,0,1,2.815,7.034l.018,5.872a11.289,11.289,0,0,0,3.648,8.255l2.779,2.531a1.5,1.5,0,1,0,2.019-2.216l-2.774-2.527a8.274,8.274,0,0,1-2.673-6.052l-.018-5.887c0-.011,0-.021,0-.032a13.881,13.881,0,0,0-3.67-9.077,1.5,1.5,0,0,0-.137-.132L18.977.989a3.515,3.515,0,0,0-4.749,5.176l15.529,15.53a.94.94,0,0,1,0,1.328l-.765.764L11.685,6.481A1.5,1.5,0,0,0,9.565,8.6L26.872,25.908l-1.122,1.121L8.444,9.722a1.5,1.5,0,0,0-2.119,2.119L23.631,29.149l-.764.765a.94.94,0,0,1-1.328,0L6.008,14.385A3.516,3.516,0,0,0,.832,19.135L17.957,39.49A1.4,1.4,0,0,0,18.088,39.627Zm0,0" transform="translate(0 -0.157)" fill="#fff"/></g></g><text transform="translate(405 7024)" fill="#fff" font-size="30" font-family="NotoSansCJKkr-Bold, Noto Sans CJK KR" font-weight="700" letter-spacing="-0.04em"><tspan x="-13.8" y="0">홀</tspan></text></g></svg>