<svg xmlns="http://www.w3.org/2000/svg" width="32" height="32" viewBox="0 0 32 32"><g transform="translate(24049 -10219)"><rect width="32" height="32" transform="translate(-24049 10219)" fill="none"/><g transform="translate(-24046 10223)"><path d="M-304.137-1487.667a9.406,9.406,0,0,0-4.834-7.044,15.11,15.11,0,0,0-9.89-2.046,14.92,14.92,0,0,0-9.153,4.164,9.248,9.248,0,0,0-3.057,7.922,9.253,9.253,0,0,0,4.443,6.807,1.181,1.181,0,0,1,.465,1.365,15.345,15.345,0,0,1-.755,1.842,1.188,1.188,0,0,0,1.352,1.639,15.435,15.435,0,0,0,5.73-2.27,1.266,1.266,0,0,1,.791-.224,16.237,16.237,0,0,0,2.7-.07,14.912,14.912,0,0,0,9.153-4.164A9.245,9.245,0,0,0-304.137-1487.667Z" transform="translate(331.138 1496.874)" fill="none" stroke="#fff" stroke-miterlimit="10" stroke-width="2"/><line x2="12.737" transform="translate(6.889 8.141)" fill="none" stroke="#fff" stroke-linecap="round" stroke-linejoin="round" stroke-width="2"/><line x2="8.757" transform="translate(10.869 12.121)" fill="none" stroke="#fff" stroke-linecap="round" stroke-linejoin="round" stroke-width="2"/></g></g></svg>