<svg xmlns="http://www.w3.org/2000/svg" width="32" height="32" viewBox="0 0 32 32"><g transform="translate(24100 -10219)"><rect width="32" height="32" transform="translate(-24100 10219)" fill="none"/><g transform="translate(-24098 10221)"><path d="M-411.518-1494.594a.972.972,0,0,0,1.585-.046,9.9,9.9,0,0,1,2.589-2.666,5.8,5.8,0,0,1,3.241-.6,7.666,7.666,0,0,1,3.562,1.187,7.409,7.409,0,0,1,3.23,5.192,11.4,11.4,0,0,1-.784,6.087,19,19,0,0,1-1.512,3.06,38.38,38.38,0,0,1-5.235,6.669c-1.245,1.3-3.585,3.315-4.951,4.466a1.533,1.533,0,0,1-2.082-.064c-1.13-1.06-2.933-2.762-4-3.822a41.405,41.405,0,0,1-5.5-6.557,17.712,17.712,0,0,1-2.566-5.586,10.028,10.028,0,0,1-.273-3,8.956,8.956,0,0,1,1.885-5.192,6.306,6.306,0,0,1,3.721-2.278,6.993,6.993,0,0,1,3.827.205C-413.712-1497.162-412.363-1495.651-411.518-1494.594Z" transform="translate(424.24 1497.939)" fill="none" stroke="#fff" stroke-miterlimit="10" stroke-width="2"/></g></g></svg>