<svg xmlns="http://www.w3.org/2000/svg" width="42" height="42" viewBox="0 0 42 42"><g transform="translate(22867 -11456)"><circle cx="21" cy="21" r="21" transform="translate(-22867 11456)" fill="#212529"/><g transform="translate(6.001 39.563)"><path d="M893.143,511.574a3.378,3.378,0,0,1-2.007,1.182,5.84,5.84,0,0,1-2.286-.014,6.441,6.441,0,0,1-2.321-.93c-1.522-1.02-2.482-2.217-2.5-3.12a1.084,1.084,0,0,1,.474-.937,4.7,4.7,0,0,1,2.29-.517,1.94,1.94,0,0,1,1.734.9.87.87,0,0,1-.13,1c-.367.453-1.542-.3-1.962-.633l-.48-.365.363.5v0l.855.826a9.992,9.992,0,0,1,.66.818,3.793,3.793,0,0,0,1.835,1.351A5.16,5.16,0,0,0,893.143,511.574Z" transform="translate(-23739.355 10926.973)" fill="#8e111b"/><g transform="translate(-22867 11421.438)"><path d="M838.336,438.834c0-.03-.035-.079-.055-.079a.144.144,0,0,0-.092.055.384.384,0,0,1-.459.193c.005-.162.014-.314.018-.468a.326.326,0,0,0-.273-.341.92.92,0,0,1-.265-.1.645.645,0,0,0-.67-.034,3.589,3.589,0,0,1-.406.15.191.191,0,0,1-.252-.155c-.028-.108.053-.184.169-.2,0,0,0-.016.005-.03-.143-.014-.288-.026-.432-.042-.273-.032-.344-.087-.374-.318a.839.839,0,0,1,.3.057c.2.132.2.143.4.018a.277.277,0,0,1,.355.069.176.176,0,0,0,.157.028c.118-.051.22-.136.339-.185a.435.435,0,0,0,.245-.6.332.332,0,0,1,0-.341c.028-.055.062-.108.092-.159a.128.128,0,0,0-.123.021c-.046.034-.085.081-.134.111-.2.122-.305-.078-.446-.143a.284.284,0,0,1-.129-.178c-.011-.064.042-.136.067-.21a.366.366,0,0,1-.305-.254c-.051-.122-.069-.369-.351-.249.007-.132-.026-.274.028-.342a.585.585,0,0,0,.123-.562l-.27.027.069.124a.652.652,0,0,1-.169-.012c-.146-.051-.289-.113-.436-.164-.1-.035-.115-.1-.086-.191a.975.975,0,0,0,.016-.66c-.023-.06.011-.141.021-.212.009-.053.021-.108.032-.161a.323.323,0,0,0-.044.019c-.051-.035-.1-.071-.152-.1a.939.939,0,0,0-.113-.053c-.062-.019-.162-.023-.175-.06a.179.179,0,0,1,.078-.233c.058-.035.136-.079.153-.136a3.41,3.41,0,0,0,.086-.438l-.191.046c-.146.033-.183.005-.21-.138-.009-.048-.049-.118-.081-.124-.162-.014-.159-.162-.252-.249.12-.033.213-.062.305-.088-.048-.083-.072-.14-.109-.191a.326.326,0,0,0-.12-.116c-.025-.012-.076.041-.146.081.012-.088.023-.159.035-.249l-.127.018c-.021.058-.037.1-.062.164-.044-.069-.069-.1-.094-.145-.083.051-.162.083-.233-.012a.507.507,0,0,0-.409-.081c-.009-.041-.018-.081-.033-.14-.125.083-.235.152-.393.256l.508.06-.166.355c-.074-.012-.155,0-.2-.041-.132-.116-.178-.009-.244.074-.048.062-.107.118-.194.214-.027-.185-.154-.3-.039-.454.011-.016-.034-.076-.055-.115l.162-.085c-.018.069-.028.1-.039.143.152-.023.219-.083.166-.131a.315.315,0,0,1-.055-.392c-.035.023-.072.046-.106.071-.011-.009-.019-.018-.028-.026.041-.046.081-.094.111-.125.2.021.379.041.561.058a.47.47,0,0,0-.157-.148c-.06-.037-.139-.055-.18-.106-.088-.113-.178-.057-.268-.027a2.047,2.047,0,0,0-.289.113c-.032.016-.044.069-.072.1a1.248,1.248,0,0,0-.153.17c-.115.194.076.4-.011.6-.005.014.014.037.018.058a.46.46,0,0,1-.007.42.124.124,0,0,0-.009.06c.154.028.3.049.434.083.042.011.074.058.109.088a.548.548,0,0,1-.106.085.849.849,0,0,1-.18.074c-.206.062-.411.134-.623.177s-.3-.069-.224-.309c-.081.021-.164.016-.2.053a.279.279,0,0,1-.3.074.8.8,0,0,0-.52.032.167.167,0,0,1-.247-.116c-.035-.115-.136-.242.01-.355a.873.873,0,0,1,.748.01.27.27,0,0,1,.028.035c.057.076.111.15.168.223a.2.2,0,0,0,.053-.014c-.074-.115-.026-.177.074-.217a.082.082,0,0,0,.042-.037c.138-.32.3-.638.088-.984-.051-.085-.164-.136-.21-.221-.076-.14-.189-.14-.319-.148a.918.918,0,0,1-.312-.088.157.157,0,0,1-.06-.235c.025-.041.125-.056.187-.044a1.459,1.459,0,0,1,.217.1.561.561,0,0,0,.281.062.633.633,0,0,1,.423.05c.069.026.15.026.217.053.125.051.194-.028.254-.106a.437.437,0,0,0,.1-.231c.009-.191.148-.208.245-.242a1.011,1.011,0,0,0,.169.134,1.454,1.454,0,0,0,.806.283c.018,0,.042.058.067.094.143-.041-.014-.141.03-.2l-.037-.032c-.012.035-.023.065-.032.1l-.044.005c-.016-.131-.03-.263-.044-.394a.269.269,0,0,0-.051-.014c-.039.063-.076.127-.136.226-.014-.109-.028-.189-.035-.268a.349.349,0,0,1,.014-.083l.088.02a.507.507,0,0,0,.162.039.776.776,0,0,0,.192-.069c.079-.035.161-.072.115-.162h-.275c.028-.1.049-.177.079-.284.035.079.057.125.083.184.039-.028.069-.053.085-.065.062.057.115.1.161.143a.583.583,0,0,0,.16-.06c.028-.019.058-.09.046-.106a.968.968,0,0,0-.243-.256c-.138-.079-.127-.176-.108-.3a.618.618,0,0,0,.009-.277.562.562,0,0,0-.48-.44.343.343,0,0,0-.413.173c-.023.039-.044.092-.079.106-.192.071-.27.238-.363.4a1.815,1.815,0,0,1-.212.288c-.1.1-.132.094-.176-.048a.188.188,0,0,0-.261-.15,2.463,2.463,0,0,1-.252.051c-.09.016-.143-.005-.141-.116a.566.566,0,0,1,.351-.459c.247-.087.522-.131.67-.394.026-.044.092-.063.132-.1.071-.062.136-.131.219-.212-.072-.02-.106-.027-.155-.039l.146-.131h-.226c0-.007,0-.014,0-.02l.138-.035c-.152-.12-.282-.23-.418-.327-.03-.023-.109-.032-.129-.011-.206.219-.494.2-.753.263-.032.007-.1-.055-.12-.1-.012-.023.023-.088.055-.113.085-.069.176-.127.266-.189.154-.108.164-.244.012-.348-.284-.192-.575-.374-.863-.561a.444.444,0,0,0-.358-.071.22.22,0,0,1-.282-.182c-.014-.048-.025-.113-.06-.134-.2-.111-.4-.214-.612-.325-.023.058-.03.081-.039.1a.949.949,0,0,0-.018.946c.064.116-.074.182-.141.253s-.116.023-.168-.041a.2.2,0,0,0-.141-.062c-.03.005-.053.076-.074.12s-.018.079-.042.108c-.074.085-.035.136.034.2a1.592,1.592,0,0,1,.21.253.136.136,0,0,1,.016.124.288.288,0,0,1-.413.03.761.761,0,0,1-.072-.175.3.3,0,0,0-.072-.122,2.617,2.617,0,0,0-.268-.143,1.146,1.146,0,0,0,.037.131c.1.247.346.433.3.747-.018.11.069.242-.118.277-.023,0-.037.044-.056.067a.328.328,0,0,1-.457.076c.058-.171.12-.33.164-.494a.378.378,0,0,0-.245-.493.246.246,0,0,1-.1-.1.636.636,0,0,0-.709-.358c-.132.026-.261.064-.4.079a.219.219,0,0,1-.233-.212c-.009-.124.1-.139.185-.159a.834.834,0,0,1,.118-.009c.167-.018.355.025.464-.177.023-.044.111-.049.169-.078s.138-.048.157-.094a.274.274,0,0,1,.219-.18.261.261,0,0,0,.176-.258.15.15,0,0,0-.065-.118.172.172,0,0,1-.079-.263.285.285,0,0,1,.27-.044.534.534,0,0,0,.706-.244,15.037,15.037,0,0,0-3.212-.975c-.028.057-.053.111-.081.173-.012-.051-.021-.094-.032-.134-.187-.041-.273.111-.379.2-.039.034.007.159.018.286-.185.079-.4.175-.619.256a.155.155,0,0,1-.136-.062,2.476,2.476,0,0,1-.037-.323c-.005-.049-.018-.1-.025-.143-.02,0-.039,0-.06-.005-.044.161-.081.325-.136.484s-.219.3-.129.515l-.79.065c-.009-.009-.034-.041-.078-.1-.067.092-.122.18-.187.256s-.208.146-.224.235c-.042.215-.238.26-.36.369a1.789,1.789,0,0,1-.526.265.627.627,0,0,0-.317.678c-.067.041-.132.083-.2.124-.048-.069-.108-.164-.176-.051a.21.21,0,0,1-.233.109c-.176-.03-.191.1-.231.2a.574.574,0,0,1-.078.136,1.963,1.963,0,0,1-.176.141l-.621-.431c.032-.12.072-.27.118-.441-.111.023-.208.048-.309.062a1.122,1.122,0,0,0-.222.018c-.062.028-.108.1-.164.157-.048-.113-.115-.168-.215-.039-.148-.087-.242.071-.344.074-.023.085-.04.148-.06.214-.057-.016-.111-.032-.2-.062.048.06.081.1.1.131-.033.115-.065.223-.106.358l-.065-.055c-.06.133-.129.275-.2.418-.3-.124-.571-.237-.855-.351.056-.044.109-.081.166-.122-.072-.15-.118.041-.176.016-.012-.035-.025-.072-.028-.079-.09-.009-.178.011-.219-.027-.134-.115-.21-.069-.287.058-.013.023-.049.051-.064.044a.129.129,0,0,1-.072-.067.283.283,0,0,1,0-.109l-.215-.023c.007.069.012.132.021.214-.108-.071-.025-.281-.233-.24l.067.258c-.014.007-.055.021-.094.035.016.018.032.035.046.053l.127.032a.278.278,0,0,1,0,.037c-.053.011-.106.019-.162.032-.018-.09-.034-.162-.049-.24-.034.025-.058.041-.088.062-.021-.049-.042-.094-.06-.141.053-.032.108-.062.162-.094-.065-.108-.062-.094-.167-.078a2.089,2.089,0,0,1-.316,0c-.011.037-.023.09-.034.131.034.118.235.007.226.15-.115.007-.222.016-.326.02a.051.051,0,0,1,.037-.02c.016,0,.03-.005.058-.01-.035-.071-.065-.136-.1-.2-.321.249-.294.267-.436.657a.369.369,0,0,0,.086.415.27.27,0,0,1,.094.369c-.049.005-.129,0-.141.023-.093.18-.289.2-.439.286-.106.062-.219.113-.325.171a2.72,2.72,0,0,1-.27.15.685.685,0,0,1-.212,0c-.079-.208-.168-.448-.259-.694.048-.044.116-.1.182-.159l-.026-.048-.305.079a1.557,1.557,0,0,0-.092-.238,2.187,2.187,0,0,0-.171-.219c-.115.087-.115.087-.219-.079.023-.058.046-.118.076-.192l-.294-.055c.049.124.083.2.125.311-.086.037-.2.132-.295.116-.155-.023-.236-.005-.245.148a.841.841,0,0,0-.161-.09c-.014-.005-.048.051-.074.083a.466.466,0,0,0-.392.079c-.074.069-.123.069-.176-.023-.067-.118-.164-.117-.238,0l-.048.083c-.027-.074-.046-.125-.065-.177h-.044c-.018.071-.034.138-.044.18-.065.023-.132.023-.16.057-.3.332-.595.673-.894,1a.228.228,0,0,0-.037.325c-.057.028-.1.049-.155.076.028.048.053.092.081.14l-.27.087a.382.382,0,0,1,.016.039c.065,0,.129.009.152.011-.014.074-.025.133-.035.189a.268.268,0,0,0,.041.009c.009-.025.019-.049.042-.106.051.109.09.192.127.277a.379.379,0,0,1-.039.021c.123.078.123.078.3-.049a.989.989,0,0,1,.136.2,2.6,2.6,0,0,1,.083.381.682.682,0,0,0,.355.434c.153.034.185.166.249.267-.057.035-.113.051-.132.085-.06.1-.113.2-.167.3,1.127-.556,4.043-1.847,6.021-1.856,2.24-.011,3.551.33,4.2,1.247,1.05,1.489,3.435,1.812,4.041,3.56a1.932,1.932,0,0,0,.557.966,4.5,4.5,0,0,1,1.473.613c.349.342.437.53.347.87s-.224.337-.247.694a5,5,0,0,1-.69,1.631s-.044.057-.118.147c-.138.17-.374.457-.605.727l-.06.069a3.632,3.632,0,0,1-1.82-1.314,10.057,10.057,0,0,0-.677-.839l-.208-.2c.508.274,1.136.486,1.441.108a1.051,1.051,0,0,0,.15-1.188,2.092,2.092,0,0,0-1.9-1,5.046,5.046,0,0,0-2.385.553,1.251,1.251,0,0,0-.547,1.082,2.852,2.852,0,0,0,.711,1.6,8.246,8.246,0,0,0,1.872,1.667,6.594,6.594,0,0,0,2.337.946,4.649,4.649,0,0,0-.346.983l-.515,1.351c-.01-.087-.063.371-.407.535a1.637,1.637,0,0,1-1,.124c-.2-.064-.325.039-.69-.069a.93.93,0,0,1-.619-.576c-.081-.21.014-1.135-.256-1.543a3.261,3.261,0,0,0-.54-.639s-.219.533-.637.54-.547-.17-.737-.087-.492.312-.718.394c-.886-.712-.674-3.071-2.837-3.777a3.412,3.412,0,0,1,1.784,2.313,6.491,6.491,0,0,0,.767,1.566l.021.021s.074.049.184.124a.618.618,0,0,1,.115.215,1.2,1.2,0,0,0,.224.588,1.257,1.257,0,0,1,.339.8,2.6,2.6,0,0,0,.2,1.2,2.633,2.633,0,0,0,.739.911c.192.139.215.127.21.281s.03.24.09.277a.8.8,0,0,1,.623.42c.284.438.289.581.079.66a2.321,2.321,0,0,1-.713.275,4.555,4.555,0,0,1-.787.041c-.295.027-.406.094-.566-.116a3,3,0,0,1-.3-.659,1.051,1.051,0,0,0-.166-.452c-.148-.224.041-.38-.086-.805a5.331,5.331,0,0,0-.9-1.5c-.182-.143-.864-.325-.967-.63a1.68,1.68,0,0,0-.453-.814c-.141-.173-.976-.789-.984-.863a7.056,7.056,0,0,1-2.274-2.145,4.52,4.52,0,0,0,2.055,2.174,6.811,6.811,0,0,1-1.972-.044,8.193,8.193,0,0,0-1.044-.2.241.241,0,0,0-.014.2.189.189,0,0,1-.037.115,2.117,2.117,0,0,1-.169.2c-.037.041-.1.118-.122.109a.8.8,0,0,1-.224-.138c-.018-.012,0-.067-.012-.087a1.314,1.314,0,0,0-.115-.131c-.032.041-.065.079-.116.145a.326.326,0,0,1-.122-.021,3.729,3.729,0,0,1-1.166.47.056.056,0,0,0,0,.023c.025.087.053.175.079.263.023.071.03.2.136.148s.312-.044.312-.267c.02.009.037.02.055.028-.032.159-.065.316-.1.5.053-.026.071-.035.085-.044.122-.094.173-.079.178.071a2.9,2.9,0,0,1-.042.523.162.162,0,0,1-.127.094.606.606,0,0,1-.257-.108,3.628,3.628,0,0,1-.284-.288.16.16,0,0,0-.079-.03c-.127-.023-.261.087-.385-.025-.032.041-.1.085-.086.116a.454.454,0,0,0,.1.192.982.982,0,0,0,.145.136c-.136.057-.245.26-.189.353.062-.168.132-.1.217-.023a.319.319,0,0,0,.175.088,4.1,4.1,0,0,0,.446-.023.9.9,0,0,0,.167-.072,1.909,1.909,0,0,0,.166-.152c.035-.03.081-.094.108-.085a1.449,1.449,0,0,1,.24.108c.039.018.085.05.123.044.138-.016.273-.06.411-.062a.912.912,0,0,1,.365.055,3.122,3.122,0,0,1,.372.224c.115.073.229.14.344.21,0,.021-.011.041-.014.062a1.021,1.021,0,0,1-.243,0c-.127-.03-.18.035-.212.134-.037.117.03.168.13.194l.07.027c.064.267.12.5.176.735.026.117.078.238-.076.316-.025.011-.028.053-.051.071s-.086.076-.111.067c-.081-.028-.212-.076-.215-.124-.018-.253-.236-.33-.383-.457a.369.369,0,0,0-.461.014.532.532,0,0,1,.081-.245.435.435,0,0,0,.067-.4c-.019-.065-.009-.138-.023-.2a.288.288,0,0,0-.065-.148.857.857,0,0,0-.217-.106c-.109-.044-.2,0-.194.118.009.131-.076.18-.145.245-.049-.071-.094-.131-.134-.193s-.072-.127-.115-.2a.421.421,0,0,0-.3.261c-.035.1-.064.274-.263.182-.044-.02-.122.025-.185.042a.328.328,0,0,1-.053.069.466.466,0,0,0-.228.4c0,.041-.062.1-.109.129a2.472,2.472,0,0,1-.3.113c.1-.171.025-.275-.1-.284a.3.3,0,0,0-.235.168c-.042.155.09.2.219.2-.049.44.3.675.457,1.012,0-.173.118-.2.236-.215a.8.8,0,0,1,.222.021c.206.041.2.06.159.265a1.9,1.9,0,0,0-.019.489.174.174,0,0,0,.125.116.249.249,0,0,0,.155-.111c.025-.037,0-.1,0-.159s-.012-.094.01-.12c.064-.083.153-.145.21-.23a.249.249,0,0,0,.034-.2c-.012-.037-.109-.046-.171-.057-.046-.007-.1.018-.145,0a1.387,1.387,0,0,1-.2-.111.126.126,0,0,1,.166-.106c.146.028.152-.053.134-.159-.028-.173-.039-.353-.282-.422.12-.136.217-.244.309-.346.157.085.272.221.45.127.011-.005.035.011.053.021.3.171.3.173.071.422a.337.337,0,0,1-.042.044.125.125,0,0,0-.014.2,1.453,1.453,0,0,0,.233.162.917.917,0,0,0,.138.056.467.467,0,0,1,0,.051.531.531,0,0,1-.161.023.232.232,0,0,0-.258.166,4.506,4.506,0,0,0-.141.72c-.016.125-.012.277.2.242.021,0,.048.019.074.032l-.028-.044c.127-.124.254-.249.381-.374l.039.032c-.011.053-.02.106-.028.155a.3.3,0,0,0,.536-.15c.035-.219.109-.244.332-.212a1.113,1.113,0,0,0,.374.011c.1-.02.258-.074.235-.2-.035-.189.06-.21.194-.231.215-.032.215-.037.3.166a.217.217,0,0,0,.026.055c.039.051.1.147.116.138a.773.773,0,0,0,.2-.143.549.549,0,0,0,.078-.108c.019.127,0,.256.058.309a.526.526,0,0,1,.125.417c0,.085-.032.231-.083.251a.7.7,0,0,1-.385.009,2.05,2.05,0,0,1-.333-.2c-.051-.026-.148-.048-.178-.021a.352.352,0,0,0-.1.207c0,.034.072.087.122.108a.207.207,0,0,1,.12.325c-.023.041-.053.113-.035.132.1.118.113.346.353.3.018,0,.041.03.062.046-.079.044-.171.067-.212.124-.065.1.111.473.22.512a.069.069,0,0,0,.027,0l.131-.009c0,.1-.026.2.005.226a.558.558,0,0,0,.254.092.211.211,0,0,0,.236-.145.437.437,0,0,1,.605-.277.263.263,0,0,0,.157-.025,3.1,3.1,0,0,0,.31-.143c.053-.026.141-.09.136-.108a.314.314,0,0,0-.129-.173c-.092-.039-.12-.094-.1-.175a.57.57,0,0,1,.092-.182.167.167,0,0,0-.021-.267c-.1-.085-.164-.026-.212.065a.383.383,0,0,1-.455.145c-.161.152-.208.157-.346,0l.254-.079a1.7,1.7,0,0,0,.078-.431c-.005-.143.044-.189.166-.189.065,0,.132.021.2.025a.681.681,0,0,0,.254,0c.236-.085.464-.189.72-.3.046.139.085.237.108.336.071.318.159.385.4.3s.349-.231.254-.378a2.346,2.346,0,0,0-.4-.413c-.021-.021-.078,0-.118-.005a.255.255,0,0,1-.085-.042c0-.012.007-.025.012-.041h.3c.048-.175.141-.24.219-.161a2.7,2.7,0,0,0,.524.478c.115.064.183.214.277.32.025.028.069.035.1.058a1.355,1.355,0,0,1,.12.106.274.274,0,0,0-.021.034l.176-.067c.012.146.023.275.033.419.079-.009.18-.016.281-.035.072-.014.141-.046.212-.062.046-.012.113-.023.138,0a1.261,1.261,0,0,1,.138.194,1.607,1.607,0,0,1-.116.228c-.067.09-.062.125.056.12s.189.044.192.164a1.139,1.139,0,0,0,.2.526.478.478,0,0,1,.037.1c.041.1.081.192.117.272.092-.023.16-.06.19-.042.15.1.293.217.45.339.1-.1.21-.207.346-.03.01.014.049.014.072.007a.423.423,0,0,1,.349.018c.023.014.069-.014.1-.025-.014-.039-.018-.094-.046-.111s-.09-.011-.136-.019a.4.4,0,0,1-.157-.039c-.032-.023-.035-.085-.067-.171a2.16,2.16,0,0,1,.494.155c.078.048.159.256.136.277-.141.124-.081.3-.154.441a.2.2,0,0,0-.037.127c.037.237.083.473.127.708,0,.014.027.025.041.037.148-.1.2-.087.243.083a1.233,1.233,0,0,1,.025.256c0,.057.03.145.007.162-.085.062-.143,0-.2-.072a.637.637,0,0,0-.122-.094c-.005.009-.009.019-.014.026.09.173.178.346.286.555-.2-.044-.384.1-.55-.076,0,.062.026.111.018.155a.391.391,0,0,1-.078.124c-.016-.007-.03-.016-.046-.025.018-.12.037-.24.058-.38-.131-.025-.266-.048-.429-.079.069.106.153.184.16.267s-.063.166-.1.258h.093c-.007.086.012.182-.028.231s-.139,0-.212,0a.359.359,0,0,1-.06,0,1.186,1.186,0,0,1-.591-.12,2.106,2.106,0,0,1,.18-.226c.1-.09.21-.166.3-.258a2.832,2.832,0,0,0,.2-.263,3.114,3.114,0,0,0-.429-.263.18.18,0,0,1-.127-.161c-.007-.063-.079-.129.028-.189.06-.035,0-.154-.088-.161a.677.677,0,0,0-.157.021c.018.094.032.175.044.242-.111.125-.217.242-.319.358a.063.063,0,0,0-.011.042.542.542,0,0,1-.118.348,1.215,1.215,0,0,0-.086.26c.143.051.27.1.291.267.005.034.09.067.143.081a.4.4,0,0,0,.143-.009l-.028.042c.065.083.129.164.194.245a.285.285,0,0,0,.256.131.313.313,0,0,1,.159.071c.064.048.116.109.18.157a.949.949,0,0,0,.129.069,1.872,1.872,0,0,1,.173-.106c.014-.007.06.02.069.041.065.164.118.334.187.494.018.042.072.065.109.1a.367.367,0,0,0,.065-.136c0-.042-.037-.09-.083-.192.227.168.339.033.45-.094.065-.072.109-.178.191-.223a3.127,3.127,0,0,1,.45-.18c.064.108.127.2.182.307.016.03,0,.079.009.117.011.056.03.159.046.161.2,0,.422.212.6-.12.012.132.019.21.028.288.005.03.021.083.03.083a.186.186,0,0,0,.1-.035.241.241,0,0,0,.053-.071c.122.081.233.154.367.242,0,0,.007.035.011.051.28,0,.55.018.813-.005a2.513,2.513,0,0,0,.99-.136.063.063,0,0,1,.044,0l.254.03a3.768,3.768,0,0,1-.067-.521.264.264,0,0,1,.124-.272c.138-.076.138-.161.014-.272a.412.412,0,0,0-.113-.046c.014-.019.03-.039.042-.058.094-.046.191-.092.286-.139a.2.2,0,0,1,.035.06c.018.136.035.27.187.336.025.009.039.058.044.092.037.161.062.325.1.487.03.1.048.24.222.2.52-.127,1.046-.242,1.563-.39.289-.087.27-.028.189-.357l.125.046a.211.211,0,0,1,.2-.2c.041-.007.086-.1.106-.159a.44.44,0,0,0-.019-.162c-.021-.166.123-.339.238-.274a3.221,3.221,0,0,1,.332.253.314.314,0,0,0,.094.06,1.079,1.079,0,0,1,.217.057c.143.072.229-.007.305-.1a.35.35,0,0,0,.081-.192c0-.184.12-.191.249-.2.051,0,.1.007.152,0,.22-.018.474.039.61-.217.053-.1.124-.111.224-.088s.212.026.358.041c-.065-.053-.094-.079-.132-.111.12-.051.25.046.337-.072.041-.055.1-.1.132-.162a.189.189,0,0,1,.233-.108.313.313,0,0,0,.2-.03,1.884,1.884,0,0,0,.243-.154,16.226,16.226,0,0,0,2.948-2.592.638.638,0,0,0,.1-.65.191.191,0,0,0-.291-.109,3.039,3.039,0,0,0-.309.2c-.094.064-.185.131-.312.224-.012-.187-.21-.244-.131-.413l-.048-.009c.021-.076.076-.162.053-.208-.032-.067-.12-.1-.185-.155-.007.012-.012.025-.02.037.039.051.078.1.118.155-.012.009-.025.019-.039.028l-.339-.261c.046.2-.041.286-.265.24.06-.042.161-.078.175-.134a1.177,1.177,0,0,0,.017-.378c-.005-.046-.077-.081-.122-.122s-.12-.1-.175-.161c-.035-.037-.051-.088-.088-.12a.31.31,0,0,1,.079-.547.669.669,0,0,0,.094-.076l-.386-.111c0-.021,0-.074-.007-.127.035.011.079.033.092.023.108-.086.208-.178.307-.274.083-.076.159-.072.213.028s.086.189.134.281c.012.023.044.039.067.06a.155.155,0,0,0,.018-.018c-.016-.032-.032-.065-.051-.1.025-.005.042-.012.051-.007.09.055.187.154.228-.046,0-.007.034-.007.051-.013a.518.518,0,0,0,.171-.072c.039-.039.042-.111.074-.207-.058.055-.081.074-.127.116,0-.161.12-.274.056-.408a.151.151,0,0,1,.072-.037c.127,0,.129-.1.138-.176,0-.041-.056-.087-.092-.129-.023-.026-.062-.046-.07-.072a1.563,1.563,0,0,1-.1-.408c-.005-.261-.035-.282.226-.369a.224.224,0,0,0,.13-.281c-.039-.113-.081-.226-.109-.343-.009-.037.016-.122.035-.124.138-.02.275-.087.418.018a3.117,3.117,0,0,0,.344.2c.074-.037.129-.062.182-.088.062.134.206.085.293.122,0,.062-.014.118.005.152s.081.023.12.016c.081-.016.161-.044.254-.069.021.034.048.076.069.111a.76.76,0,0,0,.145-.115.137.137,0,0,0,.025-.124c-.026-.044-.085-.069-.129-.1a1.782,1.782,0,0,0-.088-.228.1.1,0,0,1,.027-.1,1.167,1.167,0,0,1,.189-.079c.064.164.243.263.231.462-.028-.041-.055-.081-.094-.148-.028.175-.019.157.086.194.2.069.372-.063.563-.039.019,0,.053-.087.076-.136s.021-.074.033-.113a1.044,1.044,0,0,0,.042.1c.018.03.046.081.065.079a.116.116,0,0,0,.093-.06,3.344,3.344,0,0,0,.044-.438c0-.037-.064-.113-.09-.108-.1.021-.139-.042-.182-.113a.185.185,0,0,0-.079-.067.476.476,0,0,1-.222-.549c.185.187.182.171.469.124.129-.023.115-.125.176-.182a.8.8,0,0,0,.229-.653,1.817,1.817,0,0,0-.12-.781c-.005-.011-.011-.035,0-.042a.492.492,0,0,1,.146-.138c.023-.012.1.044.122.085.042.085.055.185.1.272a.56.56,0,0,0,.113.131,1.362,1.362,0,0,1,.191.214,2.94,2.94,0,0,1,.1.3.788.788,0,0,0,.1.143l.053-.007a3.828,3.828,0,0,0,.228-.561,8.46,8.46,0,0,0,.138-.893c.053-.445.1-.892.136-1.337a1.2,1.2,0,0,0-.062-.3.218.218,0,0,1,.016-.094c.012-.035.051-.079.042-.1-.058-.152.018-.291.023-.434C838.4,439.579,838.357,439.207,838.336,438.834Zm-5.722-9.517c.026-.007.086.044.086.069s-.039.076-.078.141c-.049-.06-.1-.1-.1-.127S832.576,429.324,832.613,429.317Zm-21.376,2.117a.713.713,0,0,1-.2,0c.086-.071.007-.244.194-.265-.013.071-.021.134-.034.207l.081,0C811.268,431.4,811.254,431.431,811.237,431.434ZM812.249,429l-.032-.014c.025-.053.041-.122.081-.15s.094.021.168.044Zm3.5-.4c0,.011.005.021.009.03-.037.011-.085.039-.106.027s-.083-.1-.072-.108a1.492,1.492,0,0,1,.173-.161c.014.018.028.035.041.053-.035.049-.074.1-.125.168Zm.665-.537a1.018,1.018,0,0,0-.037-.223c.1-.044.1.042.113.122s.032.154.049.238C816.509,428.16,816.412,428.18,816.418,428.062Zm2.715-.505c.027-.187.044-.194.233-.106C819.288,427.484,819.217,427.52,819.132,427.557Zm2.872-.079-.028.021c-.025-.032-.081-.081-.072-.1a.189.189,0,0,1,.108-.094c.057-.018.15-.078.166.065-.069.009-.134.018-.212.03C821.98,427.433,821.992,427.454,822,427.477Zm1.829-.192a.136.136,0,0,1-.134-.157c.005-.162.051-.217.206-.212.1,0,.215-.005.226.136S824.019,427.285,823.834,427.285Zm-14.955,20.232c.051-.1.071-.2.129-.244.039-.032.132.005.212.012C809.169,447.463,809.06,447.5,808.878,447.516Zm3.657-.466c-.032-.083-.074-.178-.106-.275a.1.1,0,0,1,.039-.081.978.978,0,0,1,.571.113Zm.713,1.541.381.094A.227.227,0,0,1,813.248,448.592Zm.956-2.483a1.311,1.311,0,0,1-.2.035,1.245,1.245,0,0,1-.192-.035c-.321-.06-.335-.048-.4.263a.2.2,0,0,1-.076.118,1.308,1.308,0,0,1-.273.175c-.03.012-.116-.041-.132-.081-.065-.166-.107-.339-.169-.509a1.269,1.269,0,0,0-.122-.2c.13-.062.2-.051.277.046a.3.3,0,0,0,.48-.018.392.392,0,0,1,.254-.124c.166-.012.171,0,.249-.145.242.051.176.314.318.433C814.209,446.077,814.206,446.093,814.2,446.109Zm.954.263-.072-.007V446.2c.034.007.071.012.106.018C815.179,446.266,815.169,446.319,815.158,446.372Zm.266.238a.168.168,0,0,1-.155-.247,1.083,1.083,0,0,1,.221.042c.03.011.069.079.062.09C815.518,446.543,815.469,446.61,815.424,446.61Zm2.718,3.923-.063,0c-.023-.046-.078-.111-.064-.136a1.352,1.352,0,0,1,.175-.2c.023.03.07.071.063.092A2.6,2.6,0,0,1,818.143,450.534Zm3.159,4.059c-.014.025-.071.03-.108.046-.192-.2-.192-.2-.106-.334a1.587,1.587,0,0,1,.226.157C821.338,454.48,821.323,454.556,821.3,454.593Zm.771.334a.291.291,0,0,1-.159.037,1.945,1.945,0,0,1-.224-.039c.02-.122-.074-.194-.2-.253-.039-.019-.057-.079-.085-.12a.546.546,0,0,1,.166-.019.716.716,0,0,1,.217.083,1.742,1.742,0,0,1,.273.187C822.087,454.824,822.091,454.916,822.073,454.927Zm.746.8c-.146-.078-.245-.122-.363-.021-.033.028-.148-.039-.24-.067.035-.162.07-.33.1-.484a4.494,4.494,0,0,1,.431.164c.037.019.058.1.067.154A1.963,1.963,0,0,1,822.819,455.725Zm9.009-19.578c-.115.071-.229.143-.36.226C831.459,436.138,831.634,436.05,831.828,436.147Zm-2.046-7.483c.03,0,.067.011.09,0,.19-.117.314-.005.431.122.085.094.153.2.24.291a.559.559,0,0,0,.175.1c.1.039.2.065.3.1a.387.387,0,0,1,0,.046.357.357,0,0,1-.074.044c-.224.09-.452.17-.67.267-.244.108-.319.085-.411-.157-.078-.2-.169-.4-.235-.613C829.581,428.731,829.639,428.671,829.782,428.664Zm-.28,1.21.192.085c-.007.019-.016.037-.025.057-.058-.027-.116-.049-.171-.079C829.491,429.933,829.5,429.894,829.5,429.873Zm-.286,2.917a.326.326,0,0,1,.127.012,1.008,1.008,0,0,1,.159.132c-.123.131-.242.118-.291-.039A.362.362,0,0,1,829.216,432.79Zm-1.073-3.35c.131.009.284.122.252.189a1.293,1.293,0,0,1-.194.216c-.1-.1-.206-.157-.229-.24C827.953,429.538,828.028,429.434,828.143,429.441Zm.048,2.988c-.143.053.037.314-.21.258a.246.246,0,0,1-.143-.178C827.831,432.425,828.046,432.368,828.191,432.428Zm-.457.143c-.078.048-.138.088-.2.127.072.1-.032.125-.079.173a.069.069,0,0,1-.028,0C827.346,432.682,827.48,432.543,827.734,432.571Zm-.965-2.755c-.011-.032.016-.071.025-.106.035.011.088.011.1.033a.341.341,0,0,0,.363.194c0,.018.007.035.011.051-.071.1-.139.2-.219.295-.009.012-.1-.012-.115-.039C826.871,430.106,826.818,429.961,826.769,429.817Zm-4.56,11.687c-1.522-1.021-2.482-2.219-2.5-3.123a1.086,1.086,0,0,1,.474-.938,4.7,4.7,0,0,1,2.29-.518,1.939,1.939,0,0,1,1.734.9.871.871,0,0,1-.131,1c-.367.454-1.542-.3-1.962-.634l-.48-.365.363.5v0l.855.826a10,10,0,0,1,.66.819,3.791,3.791,0,0,0,1.835,1.353,5.156,5.156,0,0,0,3.479-.057,3.378,3.378,0,0,1-2.007,1.183,5.833,5.833,0,0,1-2.286-.014A6.438,6.438,0,0,1,822.209,441.5Zm1.5,14.113a.324.324,0,0,1-.224-.283,2.536,2.536,0,0,1,.312.136c.026.016.021.088.03.134A.353.353,0,0,1,823.7,455.617Zm.261-.4a.658.658,0,0,1-.094-.162c-.007-.023.048-.064.074-.1l.13.152Zm1.025-1.308c-.062.037-.072.152-.117.222a.649.649,0,0,1-.13.12c-.037-.041-.074-.081-.108-.125a.583.583,0,0,1-.035-.06,1.072,1.072,0,0,0,.088-.224c.016-.138.042-.247.222-.229.046,0,.1-.035.159-.058C825.084,453.682,825.157,453.807,824.991,453.9Zm2.226-.281c.033-.056.033-.056.245-.06C827.457,453.677,827.457,453.677,827.217,453.624Zm-.076-6.252c-.328.1-.492-.072-.654-.041s-.309.081-.386-.009-.13-.27-.273-.274-.242-.005-.3-.1-.252-.176-.323-.39.072-.2-.12-.436-1.094-.833-1.371-1.07a12.156,12.156,0,0,1,.513-1.372c.347.288,1.764,1.46,2.041,1.6s.2.207.349.319.3.053.379.24-.026.146.148.224,1.073.5,1.032.69S827.469,447.274,827.141,447.371Zm4.676,2.716c-.129-.014-.187.111-.134.231.088.194.063.253-.134.3-.1.023-.2.016-.3.037a.294.294,0,0,0-.173.092,3.765,3.765,0,0,0-.18.413l-.145-.219c.055-.021.088-.035.129-.053-.011-.058-.018-.118-.027-.184a1.094,1.094,0,0,0-.15-.041c-.033,0-.1.011-.106.025-.025.148-.173.177-.259.263a.183.183,0,0,1-.159.044c-.034-.009-.062-.083-.072-.132a.649.649,0,0,1-.016-.21c.02-.118.055-.229.083-.355l.118.03c.074-.237.074-.237.007-.29-.021.044-.042.087-.064.129l-.039,0c-.011-.051-.023-.1-.044-.2a.381.381,0,0,1-.053-.134,3.866,3.866,0,0,1-.019-.516.359.359,0,0,1,.111-.192.222.222,0,0,1,.342.078.656.656,0,0,0,.127.155c-.005-.118.152-.231.009-.33a1.114,1.114,0,0,0-.268-.1c.044-.122.1-.286.157-.438a1.132,1.132,0,0,1,.191.159.236.236,0,0,1,.076.224.258.258,0,0,0,.136.254c.194.134.434.072.626.2.076.051.224-.009.328-.016.012.124.023.235.034.35l.044.005c-.028.023-.055.048-.083.074.069.06.13.116.2.175C832.022,450.022,831.96,450.1,831.818,450.087Zm-1.776-2.408c.275.222.281.245.15.447A.623.623,0,0,1,830.041,447.679Zm1.549.59c.012-.011.023-.021.035-.034l.164.058c-.037.053-.06.088-.106.161C831.643,448.376,831.616,448.321,831.59,448.268Zm.908,1.2c.046.071.1.14.15.221-.111.037-.2.058-.176.2.009.053-.058.122-.092.182-.012-.009-.027-.018-.039-.025.074-.148.069-.187-.072-.411C832.343,449.579,832.421,449.522,832.5,449.467Zm-.178-.59a.2.2,0,0,1,.106.274.293.293,0,0,0-.416.09c-.011.012-.078-.018-.118-.027.019-.048.025-.118.06-.139A3.531,3.531,0,0,1,832.32,448.878Zm-.138-12.54c-.028.019-.085.037-.1.025a.458.458,0,0,1-.1-.154c-.007-.012.055-.079.085-.079.116,0,.231.018.37.032C832.326,436.239,832.257,436.292,832.183,436.337Zm0-2.465c-.025.011-.111-.037-.111-.058a4.312,4.312,0,0,1,0-.452.086.086,0,0,1,.055-.058.084.084,0,0,1,.069.039,1.2,1.2,0,0,0,.076.21.989.989,0,0,0,.212.143A2.887,2.887,0,0,1,832.179,433.872Zm1.134,3.463c-.129-.035-.284-.177-.258-.263.018-.067.086-.118.132-.175l.319.274C833.442,437.226,833.379,437.279,833.313,437.335Zm.563,1.7a.84.84,0,0,1-.284.2c-.014.007-.086-.1-.1-.118,0-.173.1-.233.259-.237C833.862,438.884,833.908,438.993,833.876,439.035Zm.049-5.343c-.058.1-.113.2-.169.295-.005.009-.012.019-.019.021a2.746,2.746,0,0,1-.5.086,1.141,1.141,0,0,1-.33-.116v-.064c.141-.06.286-.113.422-.18a1.2,1.2,0,0,0,.212-.155c.039-.032.063-.078.1-.109.067-.058.145-.108.226-.032A.191.191,0,0,1,833.925,433.693Zm.409,3.434c-.155-.018-.189-.06-.166-.217.055-.305.134-.355.416-.216.194.1.388.21.422.466.007.057.07.1.107.154a.441.441,0,0,0-.007.049.673.673,0,0,1-.252-.074A.886.886,0,0,0,834.335,437.127Zm.473,7.165a.6.6,0,0,1-.169-.1c.049-.062.086-.17.146-.182a1.3,1.3,0,0,1,.362.016C835.063,444.218,834.97,444.317,834.807,444.292Zm1.2-3.929c-.1-.187-.072-.254.182-.261.078,0,.092.116.1.219.007.051-.019.147-.053.155A.189.189,0,0,1,836.012,440.363Zm.171,3.692a.107.107,0,0,1-.007-.1.21.21,0,0,1,.291.023C836.363,444.041,836.3,444.16,836.183,444.055Zm.617-2.361c-.016-.072-.035-.145-.053-.215l.072-.021c.021.074.041.146.062.217Zm.27-2.1c-.062.058-.162.143-.222.124-.2-.056-.436-.034-.6-.2a.208.208,0,0,1-.065-.157c.011-.037.092-.067.146-.074a.513.513,0,0,1,.176.025.758.758,0,0,0,.482-.12c.161-.071.235-.025.263.17A1.543,1.543,0,0,1,837.071,439.6Zm.958,1.255a.81.81,0,0,1-.161.042c.048-.131.092-.261.145-.394.007-.014.058-.009.109-.018-.021.069-.035.12-.046.161.028.039.058.079.09.117A.85.85,0,0,1,838.029,440.852Z" transform="translate(-808.038 -424.154)" fill="#fff"/><path d="M937.112,508.618a3.481,3.481,0,0,1-4.77.783,5.1,5.1,0,0,0-1.2-.6c.059-.07.051-.191.094-.267a2.227,2.227,0,0,0,.138-.237.97.97,0,0,0-.377-1.216,3.214,3.214,0,0,1,1.034.169,7.309,7.309,0,0,1,1.574,1.067c1.29,1.143,2.775.482,3.961-.433A2.355,2.355,0,0,1,937.112,508.618Z" transform="translate(-912.117 -494.334)" fill="#8e111b"/></g></g></g></svg>